<svg viewBox="1830.6 990.7 1338.7 1018.6"><path d="M2978.1 1985.9v-58.5h128.8V1904h-128.8v-58.5h-23.4v58.5h-257.6v-74.2h171.7V1580h-171.7v-78h218.6v-23.4H2580v-203h-23.4v132.7H2459V990.7h-23.4v417.6h-93.7v-132.7h-23.4v132.7h-74.2v195.1h74.2v203h-245.9v-74.2h-23.4v74.2h-78.1v23.4h78.1v156.1h-218.6v23.4h1338.7v-23.4zm-304.4-82H2580v-74.2h93.7zm-331.8 0v-74.2h93.7v74.2zm117.1-74.1h97.6v74.2H2459zm0-327.8h97.6v78.1H2459zm97.6 101.4v203H2459v-203zm23.4 0h93.7v203H2580zm265.4 0v203h-148.3v-203zM2673.7 1502v78.1H2580V1502zm-117.1-70.3v46.8H2459v-46.8zm-121 0V1580h-93.7v-148.3zM2267.8 1580v-148.3h50.7V1580zm74.1 23.4h93.7v203h-93.7zm-269.3 226.4h245.9v74.2h-50.7v23.4h686.9v58.5h-882.1z"/></svg>