<svg style='fill:white' viewBox="49.132 26.59 35.93 27.339" width="35.93" height="27.339"><path d="M79.931 53.301v-1.57h3.457v-.629h-3.457v-1.57h-.628v1.57h-6.914v-1.991h4.608v-6.705h-4.608v-2.093h5.867v-.628h-9.01v-5.448h-.628v3.562h-2.62V26.59h-.628v11.208h-2.515v-3.562h-.628v3.562h-1.991v5.236h1.991v5.448h-6.6v-1.991h-.628v1.991h-2.096v.628h2.096v4.19h-5.867v.628h35.93V53.3zm-8.17-2.201h-2.515v-1.991h2.515zm-8.905 0v-1.991h2.515V51.1zm3.143-1.989h2.62v1.991h-2.621zm0-8.798h2.62v2.096h-2.621zm2.62 2.722v5.448h-2.621v-5.448zm.628 0h2.515v5.448h-2.516zm7.123 0v5.448h-3.98v-5.448zm-4.609-2.722v2.096h-2.515v-2.096zm-3.143-1.887v1.256h-2.62v-1.256zm-3.248 0v3.98h-2.515v-3.98zm-4.503 3.98v-3.98h1.361v3.98zm1.989.628h2.515v5.448h-2.515zm-7.228 6.076h6.6v1.991h-1.361v.628h18.436v1.57H55.628z"/></svg>